/* XPM */
static char *_385aab5ca8e4b8fd46b1981515727e3vOsEwa0y3GeLsKiz[] = {
/* columns rows colors chars-per-pixel */
"64 64 111 2 ",
"   c #676767",
".  c #686767",
"X  c #6A6A6A",
"o  c #647677",
"O  c #6B7473",
"+  c #677976",
"@  c #6D7977",
"#  c #667778",
"$  c #6D7A78",
"%  c #757575",
"&  c #787676",
"*  c #757A79",
"=  c #7E7E7E",
"-  c #807E7E",
";  c #77817F",
":  c #6E7F80",
">  c #6E8181",
",  c #738482",
"<  c #7B8382",
"1  c #798986",
"2  c #778A8A",
"3  c #7B8C8A",
"4  c #7D928E",
"5  c #769795",
"6  c #7B9896",
"7  c #7DA1A2",
"8  c #3CE1E6",
"9  c #4AC9CD",
"0  c #4ECDD0",
"q  c #42D3D7",
"w  c #4CD5D7",
"e  c #45D6DA",
"r  c #4BD7D9",
"t  c #4CD9DB",
"y  c #53DADC",
"u  c #67D7C9",
"i  c #67D8CA",
"p  c #6ADACC",
"a  c #65E5D5",
"s  c #69E6D6",
"d  c #66E7D9",
"f  c #69E9D9",
"g  c #71EADA",
"h  c #42E3E5",
"j  c #4AE4E6",
"k  c #4EE4E8",
"l  c #57E5E6",
"z  c #5DEFE2",
"x  c #5FF2E3",
"c  c #64F5E4",
"v  c #6CF6E4",
"b  c #73F6E5",
"n  c #818181",
"m  c #838D8B",
"M  c #8D8D8D",
"N  c #908E8E",
"B  c #849595",
"V  c #8A9795",
"C  c #8B9997",
"Z  c #869798",
"A  c #859999",
"S  c #8A9B99",
"D  c #909090",
"F  c #919C9A",
"G  c #89A4A3",
"H  c #93DECF",
"J  c #95DFD1",
"K  c #BDDED7",
"L  c #8FEADC",
"P  c #96E1D2",
"I  c #98E3D4",
"U  c #94EDDD",
"Y  c #97ECDC",
"T  c #95EFDF",
"R  c #98ECDC",
"E  c #9DECDD",
"W  c #9EEDDD",
"Q  c #9BF0DF",
"!  c #A0EFDF",
"~  c #8EF9E9",
"^  c #9DF2E1",
"/  c #92FAEA",
"(  c #93FBEB",
")  c #93FCEB",
"_  c #97FEEB",
"`  c #99FBEB",
"'  c #98FEEB",
"]  c #9DFDEB",
"[  c #9DFEEC",
"{  c #9EFFED",
"}  c #B9ECE5",
"|  c #BEEEE5",
" . c #A1F1E2",
".. c #A5FEEC",
"X. c #A5FFED",
"o. c #BEFBF3",
"O. c #C0E0D9",
"+. c #C2E3DC",
"@. c #C2EDE4",
"#. c #C4EFE6",
"$. c #C9EDE5",
"%. c #CAEFE7",
"&. c #C5F0E7",
"*. c #CAF0E8",
"=. c #C2FDF3",
"-. c #C3FBF4",
";. c #C8FEF4",
":. c #C8FFF5",
">. c #CFFFF5",
",. c #D5FFF6",
"<. c #D6FFF8",
/* pixels */
"M D D M n - - - n - - n M D D M n - n - & % % % O % % % - n - - % % % O . . . X % % X % % % % % = - = - M M N N N M M D D M D D ",
"D M M M n n n : n - = n M M M M n : - - % % % % % % % % - - - - % % % % X .   X % % % % % % % % = = - - M M N M M N D D M D D M ",
"M M D M n - - n - - n n M M D M - = = = & % % % % % % % : n = = % % % % X X   X O % % % % % % & - n - n M M M M N N D M M M D M ",
"M M M M n - ; - - - - n M M M M = & = = & & % = % & % % - n n - & & & & X X X X % % % % % % X % = - - : m M M M M M M M M M M M ",
"n n n n - n - - % % % % = n n = % . X % m M M M M M M M M M M M M M M m : - - - - - - = X X X X X X X X X X X % - n n n & & & & ",
"- = - n - - - - % % % % = = = = X . . X M N M N N M M D M M M N M N M M n n - - - n - = X     X . . . X X X X X - : - - % % % % ",
"< - : - n - : - % % % % = = = = X . . X M N m N M N M N N M M N M N M M - = = - n - - & X X X . .   . . . . . X - - - - % % % % ",
"- - n - - = - - % % % % & = = * @ + + @ n M M M M M M M M M M m M M M M - = = = - - : = O X X X % $ $ @ $ + + + = - n : % % % % ",
"- < = = % % % % X X X X X X X $ u a a u < @ % = n n = = % X % X . X X % & % % % % % % % - - - n P Y Y U s a a u 3 - - ; - - = = ",
"- - = = % % % % .   X X . . . + d v c d , % % % = = = = .     X . . . . X % % % % % % % - : - m Q [ [ _ v c c s 3 - = = - n = - ",
"- : - = % % % % X X X X . . . + a c c a ; % % % = = - = .   . . . . . X % % % & % % % % = - - m Q ' X._ v c v s 3 - - = = = = n ",
"n n n - % % & % X X X X X X X $ p f f p , % % % = = - = @ @ @ + o o o o % & % & & & & & - - - m P W ^ Y g f f p 3 - = = = = = = ",
"N N N N M M M M M M M M < - - - B V C V ; = = = : - - m J Y Y L w q q 9 2 = - n M M M n n - - n m m m m B V C B * % % % % % % % ",
"N N N N M N M M M M M M n : - n M M M M n = = = - n - M Q [ [ _ j 8 8 e 2 = - n M M M M n - n n = = = n M M N M % % % % % % % % ",
"M M N N N M M M M M N N n n - n M M M M n - = = = = = m Q X.[ / j 8 8 e 2 - = n M M N M n - - n < n - n M M M M & % % % % % % % ",
"M M M M M M M M M M N N n : - - M M M M = = = & = = = m I R R L t e e 0 2 = : n m M M M n - n : n n n n M M M m = % % % % % % % ",
"% & * = = - n n n n n n & & % % & % % % X X X X X X X X < < < 1 B A A B n - = = * % % = - > - n M M M M = % % = = = = = = = = = ",
"% % % % = = : = - - : - & & % % % % % % X X X X   X X X O % % & M N N M n = = = % % % % - - n n M M M M % % % % = = = = = = = = ",
"% % % % - - - n < - n = % % % % % % % X .       . . . . % % % % M M M M n < - = % % % % - - < - M N M M % % % % = = = = - - = = ",
"% % % % n n n n - = = - & % % % % % % % * * * * $ @ * @ % % % % M M M M - - = = n < n < m M m m M M M m % % % % = = = = n n n ; ",
"- - = - N M M M n - - - = = = * X X X % K $.$.@.E R R J m - - - = n n n % % % < O.*.$.&.W R ^ P < % % %     . X % % % % M M M M ",
"n - : - N N M M n n n - = = = = X X   * $.<.,.,.X.[ [ ^ m - - n = = = = % % % < *.<.,.,.X.X.[ R ; % % % X   X X % % % = M M N M ",
"- n = - M M M M n - - - = = = = X   . * $.,.,.>.X.] [ W m - - : - = = = % % % n #.<.,.,.X.[ [ Y < % % % X X   X % % % % M M M N ",
"- - = = M M M M n n - : m M M m * @ @ 1 | ;.;.=.[ _ ' Y 6 2 2 2 n n n n = % % < | ;.;.=.` / / Y < % % % X X X X % % % % M M M M ",
"% % % & = = n n = - = M +.*.*.&.W Y R Y b b b b v v v v t e e 0 Z M M M = = = 1 g b b v j j j t 3 - - - = = - - = = - - n n n n ",
"% % % % = = = = - < - m *.<.<.,.X.[ [ _ v c c c c c c c h 8 8 e A N M M = = = 3 d c c c h 8 8 q 2 - - : = - - - = = - - n - n - ",
"% % % % = = = - = = - M *.<.<.,.X.[ X._ v c c c c c c z h 8 8 e A M M M - = = 3 d c c x h 8 8 e 3 - = - = = : n = - - n - - = ; ",
"% % % % = = = = = = = m +.*.*.#.^ Y ^ U g f f f f f f a t e e 0 B M M M = = = 1 u a a a q q e 9 1 = = = n - - = = : n n n n n n ",
"% % % % X X X X . X X % m M M m m m m m S S S S S S S S A A B m % X X X X X X X # $ + $ : : : : & % % & M M M M M M M M N M M M ",
"% % % % X   . X     . X & = = = = = - n M N N N N N N M N N M M X . X . . X . X . .   . % % O % % % % & M M M M N N N N N D D N ",
"% % % % . . . . . . . X = = = - - < - n M M N M N N M M N M M M X .     . . . . X .     % % % % % % % % M M D N M N N V M M M D ",
"% % % % @ @ @ @ + + + + = = = = n n n n M M M M M M M M M M M m ; * * * * @ $ @ X X X . % % % % % % & * M M M M M D M M M M M M ",
"M M M C P Y Y Y s a a p 3 - - n M M M M n n n = & % % % X O X * K $.#.@.E Y R J m & = = % % % % = - - - n n n n D D M M & & & % ",
"M M N F ^ [ [ ' v c c f 3 - - n M M M M n = = = % % % % X . X * $.<.<.>.X.[ [ ^ m - = = % % % % = : - - - - - n D D M M & % % % ",
"N M N F ^ [ [ _ v c c f 3 - ; n M M M M n n = = % % % % . .   & $.<.,.,.X.[ [ R m = = = % % % % - - - - - < - n M M D M % % % % ",
"M M M S I ^ R ^ g f f p m - = = n m M M n = = = % % % % @ * o 3 } ;.-.o.( / ) Y 5 2 2 2 % % % % n n n n n n n n M D M M * % % % ",
"- n n n m m m m S S S C n - n = % X X % = = = = % % % $ J Y Y Y l j l k j j j j e e e 0 1 = = n M M M M M M M M D M D M < : n - ",
"- - - < - = = n M N M M n - - = . . . X = = = = % % % < ^ [ [ ( j 8 8 8 8 8 8 8 8 8 8 e 2 - = n M D M M M M N M D D M M n - - n ",
"= = - - - - = - M M N M n ; = = X . . X * = = - % % % < R [ [ ( j 8 h 8 8 8 8 8 8 8 8 q 2 - - n M M N M N M N D M D M M - - - n ",
"= = = = - < - - M m M M n = = = + + + $ = = = < % % % * J Q T L r q q e e e e q e e e 0 1 = - ; m M M M M M M M M M M M - - - - ",
"X X X O - = = = & & = % = = - 3 u s a u < % % % X X . X @ @ % $ : : : > B B A A A A A B % X X X X O X % - n n n % & % * & % % % ",
"  . X X = - : = % % % % = = - 3 s c c d , % % % X . . X . . . X % % % % M N N N D M M M X .   . . . . X = n - - % % % % % % % % ",
"  X   X - - - - % % & & = = = 3 s c c f < % % % . . . . .     X O % % & M N N N N M N M X X .   . . . X & - - - % % % % % % % % ",
"X X X X - - n - & % % & = = = 3 p f f p > % % % % X X X X % X X & * & & - M M M M M M m * @ @ @ o o o # - n n : & & & % % % % % ",
"= = - - - : - n = = = - = = = = 3 3 3 3 M M M M M m M M M M M m M M M n % . X % % % % 1 H R Y L w q q 9 Z M M M M M M M : - - - ",
"= - - - = - n - - = : - ; = = = - - - - M M M M D D M M M M M D D M M M X . . X % % % < R [ [ _ j 8 8 e Z N D D M M M M n n - - ",
"= = - n - - - - = - = = - - = = - - = < M M M M N D M M M M D D M M M M X X X . % % % < R [ [ / j 8 8 e Z N N N M N N M n n : n ",
"= = - n : - - - = = = = = = = = = - = = M N M V N M N M M M M M F F F F : : & & * < * 4 ^ ' ' ~ j h h t 7 Z Z B M M M M n - - - ",
"- - n - % % % % % % % % X X X X X X X O M M M N N D D M * & & < P ^ ^  .@.$.@.@.W Y Y Y b v v v c x c z t e e 0 3 n n n & & & % ",
"= : - - % % % % % % % %       X   X X X M M N N M N M M & % % < R [ [ X.<.<.<.>.X.[ ] _ v c c c c c c z h 8 8 e m : n - & % % % ",
"- n - - % % % % % % % % X .   .       X M M N M M M M M & % % < ^ [ [ X.>.,.<.,.X.[ X._ v c c c c c c c h 8 8 q 2 - - : % % % % ",
"n n n n & % % % % % % % @ @ @ $ o o # # m M M M M M M M & % % < P ^ ^  .o.-.;.o.[ / / / f s s s a a a a e e e 0 2 - - - % % % % ",
"M M M M M M M M = = = m J R R L w q q 9 m n n n : n n n - - - n F F F G y j k k j j j r 5 3 3 3 , , : , 1 2 1 2 - - - n = - - - ",
"N N M N M M M M = = = m W [ [ _ j 8 8 e 2 - - - - n - - - - - n M M D Z e 8 8 8 8 8 8 e 1 - - - % % % % = - - - - - - - - : - - ",
"V N N M N M M M n - = m ^ [ [ ( j 8 8 e 3 = : n - n - n : - n n M N N Z t 8 8 8 8 8 8 e 2 - n - % % % % : - n - : n n - n - - - ",
"N M M M M M M M n : = 3 P Q ^ Y y e e 0 3 - n n n n n n n n - n M M M B 0 e e e t e e 9 3 - - - % % % % - - - - - n n : - - - - ",
"n n n n * & & % & & % & m m m m B Z A Z M M M M M M M M n - = n - n n m B B Z Z Z Z Z B n : - : % % % % % % % % & & % & : n - - ",
"n - - - % % % % % & % % = = - - M N N N M D M D M N M M n : = = n : - n N N N N N N N M n - - - % % % % % % % % % % % % n - - - ",
"- - - - % % % % % % % % - - : n M M N N D M D M N N N N n n = = - - n n M N N N N N N N n - n - % % % % % % & % % % % % - - - - ",
"- n n : % % % % % % % & - n - n M M M N M M M M M M N N n n n = n - - n M M M M M M M M n n - - % % % % % % & & & & % & n n n n ",
"- : - n = = = = = = - - - - - n n n n n n - n - % % & = M M M M n n n - - n n n n n n n - - n - = = = = - : - - M M M M D M M M ",
"n = - - n - = = = n - - - n < - - n - n - < - = % % % % M M M M n - - - : - - n n n n n - - - - = = = = - - n n M M M D D D D M ",
"n - n - - n - n : - n - - n - - n - - - - n < - % % % % M M N M n - - n - n - n - : - - - - - n - = = - - - n n M M D M M D M D ",
"- - - n - - n - - n - - n : - - n : - - < - - = % % % % M N N M n n : - n - - - - - < - - < - n : - = = n - - : M M D M D D M D "
};
