/* XPM */
static char *_ebd933eb8754669f84054125efd4dd85zFGg3unAv6vdilb[] = {
/* columns rows colors chars-per-pixel */
"64 64 252 2 ",
"   c #0F7A33",
".  c #2D7237",
"X  c #48693A",
"o  c #48763B",
"O  c #557A3B",
"+  c #4F6C38",
"@  c #027C47",
"#  c #187648",
"$  c #197752",
"%  c #146D47",
"&  c #27694A",
"*  c #267553",
"=  c #36714E",
"-  c #4D4D4C",
";  c #574E4C",
":  c #49584B",
">  c #56574C",
",  c #574B55",
"<  c #4B5656",
"1  c #545454",
"2  c #5B5454",
"3  c #535B56",
"4  c #5C5B55",
"5  c #54555A",
"6  c #555C5C",
"7  c #5C5D5D",
"8  c #5B545B",
"9  c #635D5C",
"0  c #6A5C5D",
"q  c #655658",
"w  c #4A6A46",
"e  c #56674A",
"r  c #477646",
"t  c #567748",
"y  c #496959",
"u  c #5B6455",
"i  c #5C6B53",
"p  c #54635C",
"a  c #5C635D",
"s  c #576A59",
"d  c #497657",
"f  c #587659",
"g  c #626354",
"h  c #63625C",
"j  c #6A645D",
"k  c #646B5C",
"l  c #696B5B",
"z  c #74675C",
"x  c #63735C",
"c  c #667655",
"v  c #60734C",
"b  c #5C5D63",
"n  c #585A66",
"m  c #5C5A71",
"M  c #635E63",
"N  c #6A5C64",
"B  c #645C6B",
"V  c #6A5B6C",
"C  c #6B5564",
"Z  c #725B67",
"A  c #665B75",
"S  c #73566E",
"D  c #4A6B64",
"F  c #566563",
"G  c #5C6363",
"H  c #546A63",
"J  c #5D6A65",
"K  c #5D646A",
"L  c #5E6A6A",
"P  c #546A6B",
"I  c #497665",
"U  c #5B7164",
"Y  c #577667",
"T  c #5B7B76",
"R  c #536B74",
"E  c #636363",
"W  c #6A6464",
"Q  c #646B64",
"!  c #6B6B66",
"~  c #64636A",
"^  c #6B646B",
"/  c #656C6B",
"(  c #6C6C6C",
")  c #736564",
"_  c #736A65",
"`  c #72656C",
"'  c #726C6C",
"]  c #7A6A6A",
"[  c #647265",
"{  c #64736B",
"}  c #6B726C",
"|  c #687867",
" . c #72736C",
".. c #76796B",
"X. c #6C6673",
"o. c #656C72",
"O. c #6B6C72",
"+. c #676877",
"@. c #726474",
"#. c #726B72",
"$. c #726A7A",
"%. c #796A76",
"&. c #6C7372",
"*. c #6D7C74",
"=. c #6D7E7C",
"-. c #677475",
";. c #737373",
":. c #7B7474",
">. c #747B75",
",. c #7B7C75",
"<. c #75757B",
"1. c #7C757B",
"2. c #747C7B",
"3. c #7B7B7B",
"4. c #826B79",
"5. c #837675",
"6. c #83757D",
"7. c #89747D",
"8. c #827B7C",
"9. c #857977",
"0. c #827C6E",
"q. c #0B921F",
"w. c #019329",
"e. c #028738",
"r. c #0C8B29",
"t. c #2F8333",
"y. c #518A3A",
"u. c #03FA1A",
"i. c #09F70D",
"p. c #26F71B",
"a. c #3AFE16",
"s. c #24DC38",
"d. c #35D13B",
"f. c #1BE92C",
"g. c #03FB22",
"h. c #06FA29",
"j. c #14F427",
"k. c #1BE938",
"l. c #18F337",
"z. c #0BF230",
"x. c #2AEE34",
"c. c #1DD633",
"v. c #55F91B",
"b. c #47FA0D",
"n. c #63F810",
"m. c #52D535",
"M. c #69D930",
"N. c #54EE32",
"B. c #65E62F",
"V. c #6EDD1F",
"C. c #068247",
"Z. c #17844E",
"A. c #34814B",
"S. c #38B347",
"D. c #3E8B67",
"F. c #57854A",
"G. c #49835D",
"H. c #5A8859",
"J. c #4F9250",
"K. c #688957",
"L. c #66944F",
"P. c #4AAC51",
"I. c #5A8866",
"U. c #5B9466",
"Y. c #508E74",
"T. c #698768",
"R. c #75876A",
"E. c #6B8576",
"W. c #74837A",
"Q. c #7C817B",
"!. c #758576",
"~. c #73956F",
"^. c #4FAA63",
"/. c #2ACA45",
"(. c #28D646",
"). c #39D748",
"_. c #37CE51",
"`. c #15EC43",
"'. c #26E447",
"]. c #2EEC42",
"[. c #1FD84E",
"{. c #4EC94A",
"}. c #6ECD46",
"|. c #6DE64D",
" X c #73F772",
".X c #5BF173",
"XX c #84817D",
"oX c #84997A",
"OX c #88F87C",
"+X c #8EF376",
"@X c #A7FD79",
"#X c #7C7583",
"$X c #767B84",
"%X c #7C7C83",
"&X c #7B768A",
"*X c #746D82",
"=X c #8C7382",
"-X c #827A83",
";X c #8A7982",
":X c #847987",
">X c #8D7090",
",X c #798383",
"<X c #768A83",
"1X c #37DB95",
"2X c #18F395",
"3X c #30EA99",
"4X c #4BD297",
"5X c #67FE95",
"6X c #71F194",
"7X c #79F8A6",
"8X c #72F6B5",
"9X c #6ED79B",
"0X c #71FFC2",
"qX c #848385",
"wX c #928B8E",
"eX c #89BC8E",
"rX c #97D687",
"tX c #8ED697",
"yX c #92D091",
"uX c #A7D492",
"iX c #97F988",
"pX c #8AE598",
"aX c #8AF999",
"sX c #97F897",
"dX c #90ED8E",
"fX c #A7FA88",
"gX c #AAF894",
"hX c #B5FA96",
"jX c #B0EC91",
"kX c #8ED7B1",
"lX c #8AEBA9",
"zX c #96ECA3",
"xX c #89FAA8",
"cX c #86E5B7",
"vX c #88FDB8",
"bX c #99F2B8",
"nX c #96F3AE",
"mX c #B9F5A3",
"MX c #B1F3AF",
"NX c #B1DCA4",
"BX c #C2EE99",
"VX c #95E8C7",
"CX c #87FCC9",
"ZX c #94F2CA",
"AX c #8FF5CF",
"SX c #B7FFC9",
"DX c #96D7C1",
"FX c #EBFFDF",
"GX c #E9FCE8",
"HX c #F8FFFB",
"JX c #EDFBF3",
"KX c #C5FFC7",
/* pixels */
";.( ( ( ( E 7 E E 7 E E E E a h g g 9 h / T T +.=X=X7.7.3.3.,.2.y : ; q 5.9.9.5.) ] ( / J a N N Z N M N E E E b M M 9 E ( ( / *.",
";.( ! ^ E h 7 E b h 7 E a M M h h 7 0 E / { { } 1.=X7.6.>.!.W.>.y : ; q :.:.Q.:.] ] ( Q J G M N W M M E G K Q E E W 9 W ( ( / &.",
";.( ( / E E 9 b E E E E E E E E 7 7 M N g c v c :.%X1.2.E.R.>.2.< : < 2 >.2.W.W.! ( / L p F 6 b G J K H F p p J b M 9 E ( ( ( ;.",
"( ( ( ( / E E E 7 7 7 h E b a 7 Q B V ) z c c x 3.%X%XW.R.E.,.2.p 3 2 8 2.W.W.!.O.} } ( Y J Q Q a p G a s J a G E E E E ( ( / ;.",
"( ( ( ( ( ( ( Q 3.3.3.3.3.3.3.Q.3.2.6.7.7.6.3.3.%X-X%X,X,X%X;X7.Z q C 0 6.3.,X2.3.6.5.2.>.>.:.:.q ; 2 4 E ! ! E ' ' ` ^ ^ E G Q ",
"( ( ( ( ( ( ( ( 2.3.3.3.3.3.3.3.Q.3.=X=X;X-X%X-X%X:X%X&X%X%X=X=XZ C C C %X3.,X3.qX7.7.8.%XQ.8.8.; ; ; 2 W }  .! ' ' ' W E h b L ",
"( ( ( ( (  .( ( 8.3.3.Q.XX3.%XXX>.>.5.5.,...R.R.%X#X$X$X,X$X&X-XZ q F F =.=.,X=.%X6.7.7.6.8.5.5.> > > 3 k } { ! ! ! ! W E E G / ",
"! ( O.( ( ( ( ^ 1.2.1.3.2.2.3.>.E.E.E.T.L.L.L.~.R.2.$X$X2.=.%X#X^ h F D $X$XE.=.2.6.7.7.3.3.5.>.s w d d d I Y U [ } ! ^ ( M 7 ( ",
"3.( ( E 7 8 1 1 9 a E h E E E p * $ $   {.B.V.M.y.6 n ~ e i Q B 6.8.2.2.^ ~ G L o.O.` ` { { { T DXAXVXDX$ & = & I { / ( ( ( ` %.",
":.( ;.( 7 1 1 6 h M E E E E E D $ @ %   N.b.n.V.O u B ^ e e p n :.3.E.*.N Z 8 E / O.` ` o.U Y I.AX0XAX8X$ $ * & I Y { / ' ' ^ :.",
"2.( } ( 1 1 - 1 7 7 b a 9 G a y Z.C.C.r.m.v.n.M.o g B C g + D P E.E.E.E.N Z Z ^ O.#.%.] { U { I.VXCXAX0X$ $ & * I.Y L / #.( ` :.",
"3.( ( ( 7 7 4 7 E E E E E E E H & % % r.d.m.M.}.O j N q [ f T I Y.Y.Y.Y.7 q 0 M ^ ^ ] ` / L / U DXVXVX9X* $ & = I L / Q ( ( ` ;.",
"3.! ( ( ;.:.;.<.( ( ( ( ( ( ( / | Y f t y.. . X g ! ^ =.DXVXVXAX3X3X3X4XY.| &./ F G N 0 M 9 0 j F D y I y y H H G K E E ( ( ( *.",
"qXE ( ( 2.qXXX3.#.( ( ( ( ( } ' ^ W _ l : : : 3  ._ H T VXAXAX0X3X2X2X1XG.Y / Q F F N N 9 7 0 0 M G 7 b F J F 7 a h 7 E ( ( ( &.",
"-XQ ^ ( :.3.:.2.( } ( ! ^ ( ( O.O.O.] _ > : < 3 E ( H I VXAX0X8X3X2X2X1XY.[ ;.( F F E M a a h W 9 ^ ~ b G 7 7 ~ E M 7 E ( ( / &.",
"%X~ / } ;.Q.3.Q.' ' ( ( ( ( ( ( +.X.^ _ 4 2 5 6 W ' T I kXVXcXcX4X3X4X4XI s ' Q G L ~ E F F G E M W M 7 ^ Q G ^ E W 9 E ( ( / } ",
",XL -.o.>.>.,.0.0.9.9.:.W 9 7 K ~ b 7 M M E M 7 G G K K H y d H D I I d s a a G <.<.1.#X#X2.<.,.3.3.1.2.3.3.2.3.2.3.:.1.1 1 1 4 ",
",X~ O.( 2.!.Q.,.,.9.9...! E G ~ K ^ E E h 7 b E ^ E B G G G u 7 E V n G G J a J %X-X%X-X-XQ.Q.XX-XQ.8.8.3.qX8.8.3.3.2.3.1 1 5 7 ",
":XZ %.' 2.,.Q.,.Q.Q.Q.;.( G F F 6 b G 7 a u a ^ G 6 b K G K s a G b h G a G h E 1.<.1.1.,.R.0...,.:.<.3.3.:.2.:.8.,X8.2.1 1 1 7 ",
"=XZ %.W :.;.>.;.<.3.3.;.o.~ K L K / ~ 3 f f d s H Y Y | 6 b G a K E h h b p 4 4 W.~.oX~.L.L.L.K.R.2.2.3.3.3.3.2.;.;.;. .7 5 4 9 ",
":.q W 7 Q G L K o.o.#.#.#.' O.( E ^ o.T.tXzXnXbXbXZXbXkX=.b 6 p L o.! j n < e X tXzXdX+X|.N.B.|.w h 7 G 9 E h b 7 4 7 E / ^ ( ( ",
"] 2 h 6 G F F F o.( ( ( ( ( W ! } ( / Y tXaXxX7X7XvXxXnXT K G L o.O._ j n < > X dXsXdX XN.b.b.B.O E h E E E E E 1 - 1 1 ( (  .;.",
"..7 J p K F K K o.O.( ( ( [ k x k x L f pX6XxX8XCXvXvXlXT n p e L -.z z n 5 > + pXxXaX XN.b.b.N.o 7 7 9 a E 7 7 1 1 1 1 ( ( ( ( ",
"} u Q a ~ b ~ B ^ ( [ | | K.I.H.I.T.E.J.6X X5X5X5X5X5X6XY.T Y Y Y } z z n n 4 w 9X6X6X.Xx.p.a.N.r E E E E E E E 1 6 7 1 ;.E ( ;.",
"wX:.8.3.1.-X6.-X` ! s f uXbXzXlXbXcXVXxX].l.x.x.`.`.`.(.8XZXZXcXE.L z z $.*X/ f   e.e.q.f.i.p.m.H.3.2.3.2.3.3.3.3.3.2.' 7 - 1 7 ",
"wX:.8.-X-X;X7.-X_ } | F.tXlXnXxXCXCXCX7Xl.u.h.g.g.h.h.`.8XCXCXVXY.o.z ] +.*XO.U Z.C.e.w.k.j.j.d.U.Q.8.8.8.Q.8.,X3.%X3.;.h 1 6 E ",
"wX2.8.-X6.8.8.7...! f f uXzXlX7XvXCXCX7Xl.u.u.u.g.g.h.`.8XCXAXZX$X^ ) _ +.+.} f     e.w.'.l.l.).U.:.3.2.2.3.1.:.3.8.qX;.7 - 1 7 ",
",X&.;.>.:.1.:.5.z c i f eXtXzXpX9XkXkX6X).s.s.s.s.k.[._.9X8XVXkXT +.) _ +.o.{ H & # # C.S.(./.P.T.3.:.3.1.3.3.2.2.3.:.;.E 1 5 9 ",
"W.{ { { / } ( } _  .! i f w w r U H U f r = r = d = = = Y U f y G 6 9 4 < 5 5 < P D R D G.A.A.= s h G 9 9 G h 7  .( ;.( ( ( ( ( ",
"!.J { [ J { k Q k ! _ g g i s i 4 7 9 8 h q M B A B B b b 8 4 4 J E k a 6 5 8 , B B A n n p p 6 G E E E E E E E ( ^ / ( ( (  .;.",
"9.) _ ! Q [ [ { } { Q ! ! E a b ~ ~ ( M ! 9 h 9 E E ~ ^ E E Q Q 4 6 p 3 : : ; - q q N N N E Q k 7 7 7 7 7 b 9 G ( ( ( ( ( ( ( ( ",
"5.) ] _ | T.I.I.F.F.F.H.a b M M B B ~ 7 ^ 4 h a Q 7 b ~ 7 G E 7 &.&.>.[ t t t i z 0 ) ] N W j g E Q ^ E E Q E E ' #.( ;.( ( } &.",
"2.( ` l tXzXlXiX|.B.B.|.w 8 ; 2 1.6.-X1.O.b M G o.-.o.&.o.} / } JXHXHXFXhXgXsXhXR.9.8.;.:X3.3.8.3.3.-X6.2.3.3.8.6.#X%X2.3.3.W.!.",
",X( ' x tXsXaXOXv.b.b.N.o 8 ; q :.8.3.:.^ b b K K O.o./ } / / >.JXHXHXFXgX+XiXgXR.0.XX>.qX&X%X#X%X%X-X3.W.W.8.8.6.6.%X2.3.5.W.E.",
":X$.Z ! yXzXaX XN.v.b.B.o : - 1 ,.!.!.>./ b b M ^ O.} E ( a u [ GXHXHXHXmXfXgXjXK.R.T.T.,X:X:X$X,X,X3.3.E.E.Q.9.8.8.%X-X7.7.XXXX",
"%X^ ' { eXtXtXdX}.M.m.}.r s 4 4 } ..;. .! M M M ( ;.Q i R.R.T.H.MXSXKXMXiX+XiXdXP.P.P.U.*.1.&X<.-.*.>. .*.| >.>.3.8.8.3.6.4.3.Q.",
"R.[ [ u U d y w r o o t > 6 a 6 b E ~ B B C V ^ 2 g e v uXBXmXfXd.f.x.k.f.f.x.k.k.`.(.P.d G ~ V ^ W Z z E h h h ,.>.W.*.( ( O.&.",
"K.f | J L K b ~ Q 7 9 l h l Q J F n b B V V N N W g + O uXhXfX+Xx.u.u.u.g.g.z.z.h.h.l.).F.e 7 9 q 0 q 9 9 a a 7 >.Q.W.*. .( +.&.",
"..x | U K B 7 V S S C q > e y : L R R K B B V N 9 g e + uXhXgXiXx.j.h.g.l.z.`.h.g.g.z.).t.w g l 0 N N N E G h h 3.Q.Q.>.#.` #.1.",
"XX! L { ~ ^ 9 E @.@.S ) y.y.y.G.= = y D P ~ ^ W 0 l g + uXrXrX+X{.d.s.c.(.(.[.(.k.f.).{.r e g h E E E ^ M ~ E E >.>.,. .' ` ` %.",
";XV -.o.$.X.! x  .Q.R.L.}.M.N.|.t.  & . T.E.W.,X-X6.8. .g w w X . . . . . r r = J.J.U.H.<X&XqX-X2.2.%X#X$.X.$.#.( Q ! ! ! _ ' :.",
"-X^ -.L $.X.l c >.!.R.y.B.n.v.N.q.e.    Y.E.=.2.#X#X-X1.Q h J G 5 , - : 4 M E 9 ..R.3.%X&X&X&X$X!.E.W.2.@.@.$.#.( ( ! ! { ! ( #.",
"8.E -.L %.%.' _ ;.:...y.M.v.v.N.q.  . . Y.E.W.$X%X:X:X#X^ M G B n 5 > > q N B M 4.>X>X>X$X,X<.!.T.H.T.=.O.@.@.@.O./ ! [ | U } *.",
":.h Q L $.@.' ' 3.3.!.L.}.M.m.}.t.. & & I.E.E.2.#X#X#X1.~ ~ ~ b m M 4 u W E Q ~ =X=X>X&XwX~.~.L.P.P.^.U.{ ' $.$.#.#.! ! U U J ( ",
"@., 6 5 ^ ^ ! Q Q ~ ( u F.O y.t d y y y T -./ &.o.( O.} / [ } { *X#X>.,.,.!.T.R.Q k  .T.jXfXhX@X).)._.^.I.*.2.$X-X;X8.] a : 1 M ",
"V , 1 1 ^ ^ Q [ -.O.<.( l l ' ( E F / b o./ / ( ( Q ( { ! { } ( %X3.!.Q.2.Q.T.T.| s | t @X@X@X+Xx.k.'._.^.I.2.2.-XqX7.] 4 - , q ",
"! ; 3 2 ^ #.;.( o.o.O.o.} ! #.#.M 7 E 7 ( ( ( } } ! ( ' ( ( ' E  ...| R.6.=X;.R./ Q / H.rX@XfXdXf.u.`.).P.H.E.2.:.8.7.] y < 5 B ",
"_ > 2 2 ! O.o.~ +.K +.+.O.^ #.~ B M W 4 ' ( ! ! ! Q W ( ^ ^ O.k oX~.~.oXwXwXwXwXR.R.T.H.+XdX X.Xc.z.`.(.S.P.P.U.!.1.6.@.p : 5 B ",
"9.Z ] z E b G F K n ~ n b ~ b B B B V B M h h g g g h h G M M s jXfXjXmXJXHXHXGXhXjXfXdXr.      r.w.e.q.'.k.f.{.= W S S [ f | ;.",
"9.) ' Q ^ F G L b F ~ M B ^ b ( ~ ~ B E E j j 9 9 9 9 a 9 M E s dX@X@XgXGXHXHXGXjX@X@XiXr.e.@ C.@   @ w.k.g.u.s.= B A S x f / ;.",
"3.Q } Q Q F G G b M E 7 u s > s e : e u 3 u h 7 7 9 h M E a E i jXsXgXmXGXHXJXJXhXfX@XiXC.@ @ @ C.C.@ C.(.l.l.).= K A V f x ^ %.",
"W.Q { J { E E ^ W h g e x T.f F.F.F.H.R.i s E / E B ^ E h h a e rXrXrXrXMXSXSXMXOX+X X XZ.$ $ # $ $ * Z._.d.d.P.F.o.A +.} ! #.6.",
"Q.Q &.( 1.1.8.6.9 > u f yXMXbXMXmXmXmXNXT.f G / +.+.X.~ E h g u i e e O {.).).s.p.p.p.s.A.R R P Y Y Y f F.y.y.y.E.%X#X&XW.!.1.:X",
"3.Q ' ( 6.-X;X7.] u e w yXzXpXdXiXjXmXNXT.f / $X$.$.@.X.~ h g g q q q o d.l.l.z.i.i.i.s.= A m A o.{ #._ l t t e !.:X$X$X,XQ.qX>X",
"XX) ' ] 6.6.6.4.M 4 e r tXsXaXaXgXjXmXMXT.f E O.$.$.$.X.E h u h E h 9 r d.l.`.l.j.u.u.s.d A 0 9 / L ( ' ! ! ....:.2.2.2.%X3.3.:X",
"9.W _ W 1.6.:X1.^ h s w eXrX9XyXrXrXuXuXK.x Q ' +.@.X.X.~ E a a Q E h t S.(.(.[.'.(.'._.I V ! z ( / / } W ^ ^ E ;.>.>.>.2.1.1.qX",
",.Q Q ( / O.O.+.O.( ( x i w o X . w + w i g u E 9 M M M M G G F / ( ( [ F.F.G.G.U.U.J.T.,X%X0...( } { / B B B B h a 4 g ( ( ( &.",
"Q.l Q } o.-.o.+.O.O.( ( a u e s e s i u a g q 0 0 W N E E K J J / { ( ! l l ( X.#X#X2.3.&X%X0.R.! ' ( / ~ n B N h g g j ' ( { } ",
"9.z ( } / -.o.-.O.$.O.( W h h h b E E 7 h 0 q j q q 9 7 7 b F n -.o.o.} ( ( O.@.&X:X-X:X:X%X3.XX] ] ] @.V V V N 0 9 g g ! / Q *.",
"9.W W ^ Q o.K o.+.~ ~ ^ V M E E n B M C ` _ W ! ) ! ( ! ~ G ~ ~ o./ O.( ( ( #.O.1.#X#X1.1.<. .] Z ) ^ ^ ~ B ~ E h j q j _ ! { } ",
"4.C Z 0 M Q b G b ~ b M G b b b n 8 , n #.1.:.:.,.,.:.:.( ( o.( ( ! _ ' [ Q ( ' ` ' ( E Z 0 h u a H F P F F p H Q ( W ! } ! ( ;.",
"4.0 N N E ^ b E E E ~ E E K K K 8 , , C 1.qXqX%X3.3.8.2.' ( ( ( _ _ %.#.{ { ( ' ` ( Q ! j 0 7 b F F F K G s p s &.;.O.(  .' @.%.",
"*Xn B G F E 9 h N h M N M E G E 2 2 - 4 #.-X$X$X%X%X,X3. .' _ ' ' O.*X+.( [ ( } ( ' ! _ ^ V A K n C V V 0 j g a ( O.+.( ( ^ ` 4.",
"T 6 n n 6 b 4 4 q q q q q 7 n 7 2 2 , 1 ( <.<.<.O.&.#.' W h 0 W W A A A K Q h h M h j E B n m m B C S C q q g 2 B X.B K Q M C 4."
};
