/* XPM */
static char *_2e573e828804210afdeb1749b30fe94IFyLfdakJG0RqXAY[] = {
/* columns rows colors chars-per-pixel */
"64 64 106 2 ",
"   c #676767",
".  c #676768",
"X  c #6A6A6A",
"o  c #706F6E",
"O  c #797163",
"+  c #797865",
"@  c #72716F",
"#  c #7A796A",
"$  c #757575",
"%  c #787775",
"&  c #7A7A71",
"*  c #767778",
"=  c #7E7E7E",
"-  c #837B6C",
";  c #807F7D",
":  c #DEA53E",
">  c #F9AF2A",
",  c #FAB32C",
"<  c #E7A631",
"1  c #E8A732",
"2  c #EBAA35",
"3  c #ECB239",
"4  c #F7B73A",
"5  c #F9B93B",
"6  c #84826F",
"7  c #858371",
"8  c #8C8475",
"9  c #83837C",
"0  c #8D8678",
"q  c #8D8B7A",
"w  c #9A9172",
"e  c #9B937B",
"r  c #A69779",
"t  c #E0A741",
"y  c #E1A841",
"u  c #E8AF41",
"i  c #EBB244",
"p  c #EEB54D",
"a  c #F9B943",
"s  c #F7BF50",
"d  c #DED354",
"f  c #EBDE4E",
"g  c #E0D557",
"h  c #EFDC50",
"j  c #E2D758",
"k  c #EDE04F",
"l  c #FCE647",
"z  c #FDE847",
"x  c #FDEE4A",
"c  c #FEF04A",
"v  c #EEE251",
"b  c #EEE35C",
"n  c #F0E453",
"m  c #FBEC55",
"M  c #FCE95C",
"N  c #FDF157",
"B  c #FCF05A",
"V  c #EDE364",
"C  c #FCF060",
"Z  c #FBF069",
"A  c #7E7F80",
"S  c #818181",
"D  c #8D8D85",
"F  c #8D8D8D",
"G  c #938F84",
"H  c #959583",
"J  c #9A9383",
"K  c #9C9A87",
"L  c #8E8F90",
"P  c #919190",
"I  c #9B9B93",
"U  c #A7A08A",
"Y  c #EDE69E",
"T  c #F1E89F",
"R  c #FDF49B",
"E  c #DFDFA5",
"W  c #E0E0A6",
"Q  c #EFE7A0",
"!  c #EEEBA2",
"~  c #E3E3A9",
"^  c #EEEEAD",
"/  c #F0EFA3",
"(  c #FFF7A5",
")  c #F1F1AF",
"_  c #FEF6AC",
"`  c #FFFEA9",
"'  c #EEEEB4",
"]  c #F2F2B2",
"[  c #FFFFB6",
"{  c #F1F1B8",
"}  c #FFFFBE",
"|  c gray87",
" . c #EFE7D8",
".. c #EFEEDC",
"X. c #FEF6DE",
"o. c #E2E2E2",
"O. c #EEEEE6",
"+. c #EEEEEE",
"@. c #FEF6E5",
"#. c #FFFDE2",
"$. c #F0F0E8",
"%. c #FFFEEB",
"&. c #EFEFF0",
"*. c #F1F1F1",
"=. c #FFFFF7",
"-. c #FFFFFE",
/* pixels */
"F P L F S A ; ; A S A S F F P F S A A A * $ $ $ $ $ $ $ ; = = = % $ @ $ . . . X @ $ $ @ $ $ $ $ A A A A F F P P F P P F L P F L ",
"P F F F S A A A A ; A S F P F F S ; ; ; $ $ $ $ @ $ $ $ ; A A = $ $ $ $ . . . X $ $ $ $ $ $ $ $ A A A A F F F L L F L F P F F P ",
"F F L F S A A ; ; A A S F F F F S A = = $ $ $ $ $ $ $ $ ; A = = $ $ $ $ X X . X @ $ $ $ $ $ $ $ = = A S F P P P P F P F F F L P ",
"F F F F A ; A A ; = ; A F F F F ; * = = % * * * * % $ * A A A A * * % $ X X X X $ $ $ $ @ @ $ $ % = = ; S F F F F F F F F F F F ",
"S S S S ; A = = $ $ $ % ; A S ; X X X $ D F F F F F F F F F F F F F F F A ; = = = = = % X X X X X X X X o X X o ; S S A % % $ % ",
"A ; A A ; A = = $ $ $ $ ; = = = X . X X F L F F F F P F F F L F F F F F S ; = = = ; = = X       . . X . X .   X = A A A $ $ $ $ ",
"; ; A A A A ; = $ $ $ $ = = = = X . . X F F F F P F F P F F F F F F F F A A = ; = = = = X X     . . .     . . X = = = = $ $ $ $ ",
"A A A 9 ; = = = $ $ $ $ * = ; * # + + # S F F F F F F F F F F D S F F F = = = = = = = = o X X X & & & & + + + # = ; = A $ $ $ $ ",
"; A A = $ $ $ $ X . X X X X X # d f f d 7 * * * S S S = $ X X X o X o @ $ $ $ $ $ $ $ $ = = % D E ^ ^ ! b h h d 0 = A ; = ; = = ",
"A A A = $ $ $ $ X . X . . . . + v c x k 6 $ $ $ = = S * X X X X . . . . @ $ $ $ $ $ $ $ = = A F ) [ [ ` N x c v q = = A A A A = ",
"S ; A = $ $ $ @ X . . .   X . + f c c h 6 $ $ $ = = = = X   . . . . . X @ $ $ $ $ $ $ $ = = A D ) } [ ` N x x v q = = = A ; ; A ",
"S S S A % * % $ o X o X X X X # j n v j 7 $ $ $ = = = = & & & # O O O O % $ $ % $ % * % = = A G ~ ) ) / b v n g 0 = = = = = = = ",
"F F F F F F F F F F F D ; = = ; K K K H S = = ; = = = D W ^ ^ Y u < 1 : 8 = ; A F F F S S A ; S D D D D H K K H % $ $ $ * $ $ $ ",
"L F P F F L F F F F F F S ; ; A F L L F S ; A A = S = D ) [ [ ( 5 > > 2 8 = A S F L F F S = A A = = = S F F L F * $ $ $ $ $ $ $ ",
"F F L F L F F F F F P F S A ; A F L F F S = A ; A ; A D ) [ [ ( 5 > > 2 8 A ; S F F F F S A A ; 9 = = S F F F F * $ $ $ $ $ $ $ ",
"F F F F F F F F F F F F A A ; A S F F F = = * = = = * D W ) ^ T u 2 2 y 8 A A A F F F F S A A A S S S S F F F D % $ $ $ $ $ $ $ ",
"% * * * = S S S S S S A % * $ $ * % * * X X X X X X X X 9 9 9 9 J J J G S A = = % * % % = A A S F F F F * * * % = = = = = = = = ",
"$ % $ $ = = S = ; A A ; $ $ $ $ $ $ $ @ X . X X   X X X $ $ $ * F F P F S ; A = * $ $ * = = A S F F F F * $ $ $ = = = = = ; = A ",
"$ $ @ % ; S = = ; A A A $ $ $ $ $ $ $ @ . . . . . . . . @ $ $ * F F P F S ; A ; $ $ % * = = = A F L F F * $ $ $ = = = = A = S = ",
"$ $ $ * = S S S A A ; ; % $ $ $ $ @ @ $ = * = % & & & # * $ $ % F F F F A = = ; S S S S D D H D D F F D $ @ $ $ = = = = S S S S ",
"= = ; S F F F F S A ; ; = = = = X X X * | +.+.O.' ^ ^ E D = = = ; A A A % $ $ S o.*.&.O.{ ) ) W A * * $ X X X X $ $ $ % F F F F ",
"= = = A F L F F S A A A = = = * X X X * +.-.-.=.} [ [ ^ D = A ; = = A ; $ $ $ S &.-.-.=.} ` [ ^ 9 $ $ @ X . X X $ $ $ * F F F F ",
"= = = = F F F F S ; ; = = = = = X X   % +.-.-.=.} [ [ ^ D = A A A ; ; A $ $ * S &.-.-.=.X.` [ ^ 9 $ $ o X X . X o $ $ * F F P F ",
"= = = ; F F F F S A A S F F F F & # @ D ..%.%.@.[ ` ` / e 8 8 8 S S S A * * * S ..%.%.#._ ( ( Q 9 $ $ $ X X X X $ $ $ * F F F F ",
"* % $ * A A S S S ; ; F o.*.*.$.' ^ ^ ! Z B C C m B B m 3 2 2 y J F F F ; ; = 0 V B C M h > 5 u 8 = = ; % = = = = = = = S S S S ",
"$ $ $ $ ; A A A ; A = F *.-.-.=.} [ [ ` N c x x c x x l , , , 2 J L L F S = A q k x x l > > > 2 8 A A A A = = ; = = A ; ; A ; A ",
"$ $ $ $ ; ; A ; A A ; L *.-.-.=.} [ [ ` N c x x c c x l , , > 2 J F F L A = A q k x x l , > > 2 8 A A A A A ; A = ; = A A ; A A ",
"@ $ $ $ * = = ; = = % F o.&.&.O.{ ^ ] / V v v h v v v h 3 2 2 y J F F S = = = 0 g f f f 2 2 2 : - = ; ; S S A A S S S S S S S S ",
"$ $ $ @ X X X X . X X o F F F P D D D H K K K K K K K K J J J G $ X X X X X X X @ + + # - - - - * % $ % F F F F F F F F F F F F ",
"$ $ $ @ X X . . . . . X = = = = = = = S L L L L L L L L L L F F X . X X . X X X . . . . @ $ @ $ % $ $ % F F F F P F P L L P F P ",
"$ $ $ $ . .     . . . X % A ; ; = S = S F F L F L L F F L F F F X X X           X X . . $ $ $ $ $ $ $ * F F F F F P F F F F P F ",
"$ * % $ % % & & + + + # = ; A A S S S S F F F F F F F F F F F S = = * * & & & # X X X X $ $ $ $ $ $ $ * F F F F P F P F F F F F ",
"F F F I ~ ^ ^ ! b f f d q = ; S F F F F S S S A * * * * o X X = | O.+.O.' ^ ^ E D % = = $ @ $ $ = = = = S S S S F P F F * % * * ",
"F F F I ] [ [ ` N x x n q A A S F L F F S ; A = $ $ $ @ X     = +.-.-.=.} [ [ ^ D = = = $ $ $ $ = = A ; A = A S F P F F * % $ $ ",
"F L F I ] [ [ ` N x x v q ; A S F F P F S S = = $ $ $ @ X     % +.-.-.=.} [ [ ^ F = A A $ $ $ $ A A A ; ; = S S F F P F % $ $ $ ",
"F F F I ~ ) ] / b n n j q A = = D F S F S A = = $ $ $ * # & @ D  .@.@.@._ ( ( Q e 8 0 9 * $ $ $ S S A A S S S S F L F F * $ $ $ ",
"S S S S D D D G K K K K S ; A = X X X $ = = = = $ $ $ ; W ^ ^ Q s a a a 5 5 5 4 2 2 2 < 8 = = = F F F F F F F F L L L F ; = = = ",
"= A A ; = A = A F F L F S A ; = X . . X = 9 = = $ $ $ 9 ^ [ [ ( 4 > > > > > > > > > > 2 8 A = S F P L L P L F P L F L F S = ; = ",
"; S A ; A = = = F F F F S = = = X . . X * S = 9 $ $ $ 9 ^ [ [ ( a > > > > > > > , > > 2 8 A = S F F F L L F P F L L L F S ; = = ",
"= * = = = = = = F F F F S = = = # + + # = = = * $ @ @ ; E ^ ^ Y u < 1 2 2 2 2 2 2 2 2 : 7 = = = D F F S F F F F F F F F = = = = ",
"X X X X 9 A A = % % % % A A A 0 d f f d 7 $ $ $ X X X X & & & & - - - - J J J J J J J J $ X X X X X X o = S S S % % % % $ $ $ $ ",
". X X X = A ; = $ $ $ $ = A ; q v x c v 6 $ $ $ . X . .       . @ $ $ * F L F P F L F F X X . . X X X X = = A = % $ $ $ $ $ $ $ ",
". X X X = ; A = $ $ $ $ = A A q v x c k 7 $ $ X . . . X X     . $ $ $ * F L L L F F F F X X . . . . . X = = ; = $ $ $ $ $ $ $ $ ",
"X X X X = A = = * $ $ * = ; = q g v v d 7 * % * o X o X o X o o $ * % * S F F F F F F F & & & # O O O O ; A ; ; % * % * $ $ $ $ ",
"* = = = = = A ; = = = = A A A 9 q q q q F F F F F F S F S F F F F F F S @ X X @ @ $ $ 9 E ^ ^ Y u < 1 : J F F F F F F F = = = = ",
"A = = ; = = A A = ; = A ; ; A = = = A A F F F F P F P P P F F L L L F F X . . . @ $ $ 9 ^ } [ ( 5 > > 2 J L L F F F F F = = = = ",
"A ; A A A A ; A = = = = A A = ; S = = S F F F F P L F P L L L L L L F F X .   . @ $ @ ; ^ [ [ ( a , > 2 J L L L F F L F S = = = ",
"A A ; A ; = = ; = = = = = = = = * = = = F P F P F F P F F F F L I I I I A = % = 9 9 9 H / ` ` R 5 , , 3 r J J J F F L F S = = = ",
"; ; A ; * $ $ $ $ $ $ $ X X X X X X X o F L L L P L L G * % * 0 ~ ] ) { O.+.&.O.' ^ ) ! C B B m z l z l 3 3 3 : 0 A S A % * $ $ ",
"A A A ; $ $ $ $ $ $ $ $ . . . X . . X X F L L L L L F F * $ $ ; ^ [ [ } =.-.-.=.} [ [ ` N x c x x m x l , > > 2 8 A ; = * $ $ $ ",
"A A A ; $ $ $ $ $ $ $ o X   . . . . . X F L L F F F L F * $ $ 9 ^ } [ } =.-.-.=.X.` [ ` N x x x c x x l , > > 2 8 A A = $ $ $ $ ",
"S S S A * $ % $ $ $ $ % & & & & O O O # S L F F F F F F * % $ 9 ~ ) ) ' @.@.@.@.` R ( R b v h n v h h f 3 1 2 : 0 A A = $ $ $ $ ",
"F F F F F F F D = = = D E ^ ^ Y u 1 1 < 0 S S S ; S S S = = = S I I I U p a a a 5 5 5 i w q q 0 7 6 7 7 8 8 8 8 ; A A ; = = = = ",
"F P L F F F F F = = = D ) [ [ ( 5 > > 2 8 = S = ; = S A = = = S F F F J 2 , > > > > > 1 0 = = = $ $ @ $ = A A A A ; A A = = ; = ",
"P F P F P F F F A = A D ) [ [ ( 5 > > 2 8 = ; ; = ; = ; = = = S F L L J 2 , > > > > , 1 8 = = = $ $ $ $ = = = = A ; ; A A A = ; ",
"F F F F F F F F A = = D ~ ) ) Q i 2 2 t 0 S S ; S S S S S = S S F F F J y 2 2 2 2 2 2 2 0 A = = $ $ $ $ = = = = A ; = A ; ; A A ",
"S S = = * % * $ * % $ * D D D G J J J J F F F F F F F F S A A A A S S S J J J J J J J J S ; = = $ $ $ $ $ $ $ $ $ % $ * A ; A A ",
"= = = A $ $ $ $ $ $ $ $ = = A = F F L L P F P L F F F F S A ; ; ; ; A S F L L L L L L F S = = = $ $ $ @ $ $ $ $ $ $ $ $ = A A ; ",
"S = = ; $ $ $ $ $ $ $ $ ; A = A F F L L F L L L L L F F S ; ; A A A A S F P P P F F L F S = S ; $ $ $ $ $ $ $ $ $ $ $ $ ; A A ; ",
"= = = A % $ % * $ $ $ $ ; A A S F F F F F F F F F F F F S S A ; A ; ; S F F F F F F F F S = = = $ $ $ $ $ $ % * * % $ % A S S A ",
"S A S = = ; = = = = = ; = A ; A S S S S S S S A % % $ * F F F F S ; S A = A S S S S S S = = = S = = = = ; ; = = F F F F F F F F ",
"= = ; = S = = = = = = = A A ; S = = = S S A A = % $ $ % F F F F S A ; ; = = A ; S = ; = = S = = A = = = A A = S F F F P L P F P ",
"S A A S = = = S A S ; = = = = = S ; = ; = A A = $ $ $ % F F F F S A A A ; A ; A S = = = S = = = S A = = = A ; S F F P F F P P F ",
"= ; = = ; S = A = = S A A ; S A A A = S ; A = = $ $ $ * F F P P S A ; A A A ; A = = S = S = S = = A = = = = ; S F F F P L L L F "
};
