/* XPM */
static char *_c2360cb9149448aa8ce8d830812d8dcwaWarwknCcOxe3dd[] = {
/* columns rows colors chars-per-pixel */
"64 64 115 2 ",
"   c #6E5C5C",
".  c #715757",
"X  c #725C5C",
"o  c #7C5D5D",
"O  c #676767",
"+  c #6E6363",
"@  c #676969",
"#  c #6A6A6A",
"$  c #756565",
"%  c #7A6565",
"&  c #776B6B",
"*  c #7B6C6C",
"=  c #747575",
"-  c #7B7373",
";  c #777878",
":  c #7E7E7E",
">  c #8F0202",
",  c #8D0E0E",
"<  c #950202",
"1  c #9B0202",
"2  c #950C0C",
"3  c #9D0A0A",
"4  c #8D1313",
"5  c #8D1B1B",
"6  c #931212",
"7  c #9C1313",
"8  c #921C1C",
"9  c #9D1A1A",
"0  c #A50303",
"q  c #AA0303",
"w  c #A50C0C",
"e  c #B40303",
"r  c #B90303",
"t  c #A41212",
"y  c #A41A1A",
"u  c #AD1C1C",
"i  c #B11111",
"p  c #8C2424",
"a  c #8E2B2B",
"s  c #932222",
"d  c #9D2323",
"f  c #932929",
"g  c #9C2A2A",
"h  c #8D3636",
"j  c #913232",
"k  c #A52121",
"l  c #AB2121",
"z  c #A02C2C",
"x  c #A82828",
"c  c #A63131",
"v  c #D61717",
"b  c #DD1B1B",
"n  c #E70202",
"m  c #EC0202",
"M  c #E50F0F",
"N  c #ED0C0C",
"B  c #F50000",
"V  c #FE0000",
"C  c #F30C0C",
"Z  c #F90808",
"A  c #E41414",
"S  c #EC1414",
"D  c #E51A1A",
"F  c #EB1A1A",
"G  c #F21111",
"H  c #D52525",
"J  c #DE2222",
"K  c #D42A2A",
"L  c #DA2929",
"P  c #CC3333",
"I  c #E02222",
"U  c #935E5E",
"Y  c #985B5B",
"T  c #826666",
"R  c #856464",
"E  c #8E6363",
"W  c #8A6464",
"Q  c #846868",
"!  c #816C6C",
"~  c #8C6C6C",
"^  c #926565",
"/  c #906D6D",
"(  c #817171",
")  c #837777",
"_  c #867474",
"`  c #847777",
"'  c #8A7373",
"]  c #887777",
"[  c #897777",
"{  c #8C7474",
"}  c #827979",
"|  c #8C7979",
" . c #8D7D7D",
".. c #907171",
"X. c #917B7B",
"o. c #9B7E7E",
"O. c #7E8080",
"+. c #818181",
"@. c #828383",
"#. c #838383",
"$. c #848484",
"%. c gray53",
"&. c #8F8383",
"*. c #898989",
"=. c #8F8888",
"-. c #8B8C8C",
";. c #8E8E8E",
":. c #938383",
">. c #918787",
",. c #968787",
"<. c #998383",
"1. c #908888",
"2. c #968888",
"3. c #8F9090",
"4. c #929292",
/* pixels */
"$.+.+.: ; = = = = = = = = = = ; = = = ; : : +.+.;.4.;.4.3.4.;.-.= O O # -.4.3.;.+.+.+.: ; = = = = = = = = = = = = = = = O.O.+.O.",
"$.: +.: = = = = = = = = = = = = = = = = : : +.+.;.;.;.;.;.4.;.=.# O O = *.3.;.;.+.: +.: = = = = = = = = = = = = = = = = : O.O.} ",
"$.+.: : = = = = = = = = = = = = = = = = : O.O.+.3.3.;.;.3.;.3.-.# O O # *.;.;.;.+.: +.: = = = = = = = = = = = = & = = = O.O.O.O.",
"$.: +.: = = = = = = = = = = = = = = = ; : } +.+.;.3.1.3.;.3.;.-.= O O # *.;.;.;.+.+.+.: ; = = = = = & = = = = = = = = = O.} O.: ",
"$.: : +.: : : O.$.*.*.*.$.*.*.*.*.*.*.*.*.*.*.;.3.;.4.;.;.;.1.3.= = & = ;.;.;.4.;.*.;.*.*.*.*.$.# # # = ; : : : : : : ; ; ; ; ; ",
"$.: +.: : : } +.;.4.;.;.;.;.3.1.3.;.;.4.4.4.;.3.;.3.;.;.;.4.;.;.= = = ; ;.;.;.;.;.3.;.;.;.3.4.*.# @ O # : : O.: : O.} : ; = = = ",
"$.: +.: : +.: +.;.;.;.;.3.;.4.3.4.;.1.;.;.;.;.;.3.;.;.;.;.;.;.;.; = = ; ;.;.;.3.3.;.;.3.3.1.3.-.# O O @ : : : : : : : : = = = = ",
"$.+.: +.: : : : *.;.;.;.;.-.;.;.;.1.1.=.;.;.-.;.;.;.;.;.;.;.;.*.; = ; ; *.;.;.;.;.;.;.3.3.3.3.=.* + $ $ - : } } } O.: : = = = = ",
"+.} O.O.= # # # ; ; = = ; ; ; - j s d f * ; ; ; ; ; ; - ; - ; ; $.*.*.*.; ; ; ; +.+.+.+.+.+.$.| H D b v 9 8 8 f } O.O.O.: : : : ",
"%.O.: : # # # O & ; = = = = = * 6 < < 2 % ; = = = = ; = ; = = ; -.4.4.-.; = ; ; } O.: +.: +.O.{ S V V B 0 < < 6 ) O.O.} O.+.: : ",
"$.O.O.: # O # @ = = = = = = = * 5 < < 2 % = & = = = = = ; = = ; -.3.;.-.; = = ; O.} +.: O.O.: ] S V V B 0 < < 6 - } O.O.: +.} O.",
"$.O.} : # # # # = = = = = = = & 8 1 2 6 $ = = = = = = = = * - - =.1.1.*.; = = - : O.: +.O.` : ] F V Z m w 2 2 6 ) : O.O.+.O.O.O.",
"$.+.: +.$.$.$.$.O.: ; : : : : ; Q R R T # # # # ; : ; _ P J J H g a a h - : : ; ; ; ; = ; ; = ; ^ Y Y U o o o o = = ; ; : +.: +.",
"$.O.: +.;.;.4.;.+.} +.+.O.: O.: +.O.O.: # O # # : : +.] S V V B 1 > > 4 ( O.: : ; = = = = = & = = = = = = = = = = = = ; : : O.: ",
"+.} : +.*.4.3.;.+.O.: : +.O.O.: : +.: } # # # # : : O.] F V B B 1 > < 4 ( +.: : = = = = = = = = = = = = = = = = = = = ; : : } O.",
"%.O.: +.;.3.;.;.$.+.+.+.: : : O.: +.O.: # O # # : +.: ] J Z Z n 3 , , 4 ( : +.: ; = = = = = = = = = = = = = = = = = ; ; : O.: O.",
"$.O.} O.;.3.3.;.;.;.-.*.; ; = ; ; ; = = = # = = = = = ; E U U U o o o X = ; ; - $.*.*.*.*.-.*.*.$.$.*.*.*.*.*.*.*.*.*.$.= # # # ",
"$.O.: +.-.3.;.3.3.3.3.;.; ; = = = = = = = = = = = = = = = = = = = = = = = = = ; ;.4.;.;.3.3.1.;.3.;.3.4.3.3.3.3.4.3.4.*.# @ # # ",
"$.O.O.+.*.;.4.;.;.1.;.;.; = = = * = = = = = = = = = = = = = = = = = = = = = = ; -.3.;.4.3.;.4.;.;.;.3.;.3.1.;.;.;.;.;.*.# O # O ",
"$.: : : *.;.;.;.;.;.;.;.: = = = = = = = * * * & & * * = = = = = = = = = = = = ; >.2.,.,.>.1.1.1.;.;.;.;.*.;.;.*.;.;.;.$.# # O # ",
"- = = = ; - ; ; +.+.+.+.: : : : : : : _ K D D v y y y d & = = = : : : ; = O @ $ L F F J l k k z * ; ; ; ; - ; ; = # = = ; ; : : ",
"; = = = ; ; = ; : : +.: +.O.O.O.O.: : ' S V V B e q q w % = = = : : O.: # O O o N V V B e q q w % ; = = = = = = O O O # : +.} : ",
"; ; = = = = = = : : : O.: O.+.} +.O.: ] S V V B e q q w % = = = O.} : : # # O o C V V B e q q t * ; = = = = = = O O # # : : O.O.",
"; ; ; = = ; ; ; : +.O.O.] ` ` ] ) ) ) ~ A B B B e 0 q w o * & & : O.: : # # @ o A B B n q 0 q y % - ; ; ; = ; = # # # # : : : : ",
";.*.*.;.;.*.*.*.+.O.O.} c u u u y y y y q q q q 1 1 1 3 4 5 4 p ( O.O.O.: : : * y q 0 0 < < < 4  .*.*.;.;.*.*.*.*.*.*.$.# # # # ",
"4.4.;.;.;.3.4.;.+.} O.} l r r r q q q q < < < < < < < < > > > , ! O.O.} O.: +.( 6 < < < > > < 4  .4.;.;.;.;.4.4.;.4.4.*.# # # # ",
"4.3.1.3.3.;.;.;.+.+.+.} u r e e q q q q 1 < < < < < < < < > > , ! O.+.O.: : +.( 6 1 < < > > > 4 :.;.;.;.;.;.;.;.3.;.4.*.# O # O ",
"4.;.3.3.;.;.;.;.+.: : } x i i i t w t t 6 6 2 2 6 2 6 6 4 , , 5 ! O.: : : : : ( 8 2 6 6 4 4 , 5  .;.;.*.;.;.*.;.;.;.;.$.# # # # ",
"$.+.+.+.+.+.+.+.+.: O.: * T % % % T % % % % $ $ % % $ % % $ $ % = = = = # # # # $ $ % $ % $ $ % ; ; ; ; ; ; ; - +.+.+.+.: : : ; ",
"$.+.+.: O.: O.O.O.} : : ; ; = = = ; = = = = = = ; ; = = = ; = = = = = = # # O # & = = = = = ; = = = = = = = = = : : : +.+.: } +.",
"$.} O.O.} O.O.O.O.O.: : = = = = = = = = = = = = = = = = = = = = = = = = # O # # = = = = = = = = = = = = = = = ; : +.: : : O.O.O.",
"$.O.O.+.} | ] ] } } } } = = & = ; = ; = = = = = = = = = = = = = * * * * + + + + = = ; = = ; = ; = = = ; ; = ; ; : +.+.+.+.+.O.+.",
"$.+.: _ K F D D y 8 8 p $ @ O = $.*.*.%.; = = = : : : : : : O._ H D D b t y 7 g  .*.*.*.*.=.*.*.-.*.=.-.*.*.*.*.;.*.*.;.-.;.;.*.",
"$.: +.] F V V V e < < 2 . O O # *.4.3.;.; = = = : O.O.: O.} : ' S V V B r q q y :.3.3.3.3.3.;.;.3.;.3.3.4.;.4.;.1.3.4.;.;.;.4.;.",
"$.: O.] S V V B q < < 2 . O O # *.4.3.-.; = = = : : : } O.O.: ] S V V B e q q t >.3.3.3.3.;.;.;.;.;.;.3.;.;.;.;.3.3.4.3.4.;.;.;.",
"$.O.: | I C C N w 2 6 6   O @ # $.;.=.*.; = = = : : : : } } ) ~ D B B m e q q t | &.&.&.;.;.;.;.;.-.;.;.;.;.;.;.3.3.;.;.;.;.;.;.",
"$.O.O.} R W W R % % % % & = # = ; ; ; ; = = = = ; = ; * g y y y 0 1 0 < < < > < 5 8 5 a - ; ; - ; ; - ; ; ; ; ; ;.3.;.;.+.+.+.+.",
"$.} O.O.; = ; = ; = = = = = = = ; = = = = = = & ; = = & y q q 0 > > > > , < > > > > < 4 & = = = = ; = = = = = - ;.;.;.-.+.: : +.",
"$.O.O.O.= = = = = = = = = = = = = ; = = = = = = = = = & y q q 0 < > > > > > > > > > > 4 $ = = = = = = = = = = ; *.;.;.;.+.O.+.: ",
"$.} O.: = = = = = ; ; = = = = = & & $ & = = ; ; = ; ; - d w t w 4 4 , , 4 4 4 4 4 4 4 p * ; ; ; ; ; = = = ; = ; ;.;.3.-.+.O.O.` ",
"$.O.: +.: : : : *.*.*.*.- = = * p 6 6 s ] 4.*.*.*.-.-.*.* % $ %         $ $ $ % |  .X.&.*.;.*.*.;.*.-.*.O.: : : +.+.+.+.+.O.O.O.",
"$.O.+.: : +.+.: -.;.4.;.; = = & 6 < < 2 X.4.;.4.3.;.;.;.- ; = = # O O O = = = ; ;.;.3.3.3.4.;.4.;.3.;.;.+.: +.: : : O.O.: } +.O.",
"$.O.: : : +.: +.*.4.;.;.; = = & 8 < < 2 X.;.;.4.3.3.1.;.; ; = = # O O # = = ; ; -.3.3.3.1.3.3.;.3.3.3.;.+.} : O.+.: } O.O.} : +.",
"+.: : : +.: : +.*.;.;.3.: = = = p 2 6 8 ] -.;.;.;.;.3.*.; ; ; = = # # = = ; ; ; *.;.;.=.<.o.o.o.X. . .&.O.$.+.+.+.+.$.O.: : ; : ",
"= # # # : O.O.O.+.+.+.+.: : : : * & % $ : +.+.+.+.+.+.+.: : : : $.-.;.*.;.*.-.-.+.+.+...D G G A 7 4 4 f  .3.;.;.;.;.;.*.# # # # ",
"O # @ # ; } O.+.+.: : : +.: O.: ; = = ; : +.` : : +.+.: +.O.O.+.-.3.;.;.;.4.;.;.+.+.O./ C V V B 1 < > 4 &.4.;.;.;.3.3.*.# # O @ ",
"# O @ # : } : +.+.: O.O.O.: } O.= = = = : O.O.O.+.: O.O.: } O.+.;.;.3.;.3.;.3.-.+.: O.~ C V V B 3 > > 4 >.1.3.3.;.3.3.*.# O # O ",
"= # @ # : : : : : O.O.} : : : ; ; = = ; : : : O.: : : : O.O.: O.&.>.>.:.,.<.<.<.] ) ) ^ M B B m 1 > > 6 ] &.&.&.;.;.;.*.# # # # ",
": ; : : - ; ; = ; = = = = = ; ; = = = = = = = = ; = = ; = = = * g y y u D F F D u y y y 0 0 0 0 1 < < 2 4 5 8 a * ; ; ; ; : : ; ",
"+.O.: : = = = = = = = = = = = = = = = = = = = = = = = = = = = & y q q e B V V B e q q q 1 < < < < 1 < < > > > 4 & = = = O.+.O.} ",
"$.: O.: = = = ; = = = = = = = = = = = = = = = = = = = = = = = * t q 0 e B V V B e q q 0 < < < < < < < < < > > 4 & = = ; : O.O.+.",
"$.+.: : ; ; ; ; = = = & * Q % % * $ $ & & = = = = = = = = = = $ d w t i n B m n q 0 q w 2 6 2 6 6 6 6 6 4 4 4 p * = ; ; +.+.+.+.",
"$.+.+.+.*.;.*.*.- = = - H N N A 7 , , 5 ! O.: : : : : : ; = = = * % % o 6 1 1 1 < < > 4 o $ % * ! _ ( ( ( ( ( ( *.;.-.-.;.;.;.;.",
"$.: : : ;.;.4.;.; = = * D V V B 1 > > , ! O.O.O.: : +.: ; = = = = = = * 4 > > > < > > 4 & = = = O.} +.O.O.} O.+.;.3.;.3.;.;.;.;.",
"$.: : +.*.;.;.;.: = = * D V V B 0 > < 4 ! +.: : : O.: : = = = = = = = & 4 > > < > > > 4 $ = = ; : O.} O.O.O.: +.;.;.3.;.;.;.;.3.",
"$.+.+.+.;.;.;.*.; ; ; ! H S N A 6 4 4 5 * : : : : : : : ; = = & = ; ; & p 4 4 4 5 4 5 p * ; ; ; : O.O.O.O.: : +.*.=.-.=.;.;.;.;.",
"$.+.+.O.+.+.+.} : : : : ! * T Q $ $ & & = = = = = = = = = = = ; ; : O.: - ) ( ) &.&. .&.=.-.;.*.+.+.} : = = = = ; ; = ; } +.+.+.",
"$.: : : O.O.O.: : +.: : ; = = = = = = = = = = = = = = = = = = = : : } O.+.+.O.+.;.3.3.3.3.3.;.;.+.O.O.: = = = = = = = ; : O.: O.",
"$.: : O.} O.: : O.: +.: = = = = = = = = = = = = = = = = = = = = : O.O.: : +.: +.;.;.;.3.3.3.;.;.+.O.: : = = = = = = = = O.O.+.: ",
"+.: : : : O.: : : : : : = = = = = & = ; = ; ; ; ; ; ; ; = = ; ; : } O.+.+.: O.+.*.;.;.-.*.-.;.*.: : : ; = = = = ; ; = ; : O.} O.",
"; ; = = = = = = = = = = = = = = # # O # $.;.;.;.*.;.;.-.+.: : O.O.} +.O.: O.O.O.+.+.O.O.; = ; = ; ; = = = = = = : : : : O.+.: : ",
"; ; = = = = = = = = = = = = = = # # O # *.;.;.4.1.3.;.;.+.: +.} O.O.: O.} O.: +.: +.} O.= = = = = = = = = = = = : O.+.O.+.: : +.",
"; = = = = = = = = = = = = ; = # # # @ # *.4.4.;.4.4.3.;.$.+.O.: O.+.O.+.} O.+.: O.: : : = = = = = = = = ; = ; - : +.O.O.O.} +.: ",
": ; ; - ; ; ; - ; ; ; ; ; ; ; ; # # # = ;.4.4.4.4.4.4.4.$.$.$.$.$.$.$.$.+.$.$.$.$.$.$.+.- ; ; - ; ; ; ; ; ; ; ; +.$.$.$.$.$.$.$."
};
